<svg width="512.001" height="512.001" xmlns="http://www.w3.org/2000/svg">

 <g>
  <title>background</title>
  <rect fill="none" id="canvas_background" height="402" width="582" y="-1" x="-1"/>
 </g>
 <g>
  <title>Layer 1</title>
  <g id="svg_1">
   <g id="svg_2">
    <path fill="#acacac" id="svg_3" d="m284.286011,256.002014l221.856995,-221.858013c7.810974,-7.811001 7.810974,-20.475 0,-28.285c-7.811005,-7.81 -20.475006,-7.811 -28.285004,0l-221.858002,221.857994l-221.856998,-221.857995c-7.810999,-7.811 -20.475,-7.811 -28.284999,0c-7.81,7.811 -7.811,20.475001 0,28.285001l221.856994,221.857006l-221.856997,221.858002c-7.811,7.811005 -7.811,20.475006 0,28.285004c3.905,3.904999 9.024,5.857025 14.143,5.857025c5.118999,0 10.237001,-1.952026 14.142998,-5.857025l221.856003,-221.857025l221.856995,221.856995c3.904999,3.904999 9.023987,5.856995 14.143005,5.856995s10.237,-1.951996 14.143005,-5.856995c7.810974,-7.811005 7.810974,-20.475006 0,-28.285004l-221.856995,-221.856964z"/>
   </g>
  </g>
  <g id="svg_4"/>
  <g id="svg_5"/>
  <g id="svg_6"/>
  <g id="svg_7"/>
  <g id="svg_8"/>
  <g id="svg_9"/>
  <g id="svg_10"/>
  <g id="svg_11"/>
  <g id="svg_12"/>
  <g id="svg_13"/>
  <g id="svg_14"/>
  <g id="svg_15"/>
  <g id="svg_16"/>
  <g id="svg_17"/>
  <g id="svg_18"/>
 </g>
</svg>