<?xml version="1.0"?>
<svg xmlns="http://www.w3.org/2000/svg" height="512px" version="1.1" viewBox="0 1 511 511.99999" width="512px" class=""><g><g id="surface1">
<path d="M 315.996094 141.3125 C 258.777344 141.3125 224.617188 196.082031 223.191406 198.414062 L 248.785156 214.070312 C 248.917969 213.855469 255.679688 202.996094 267.550781 192.277344 C 268.835938 217.886719 290.074219 238.324219 315.996094 238.324219 C 342.050781 238.324219 363.367188 217.667969 364.449219 191.871094 C 376.34375 202.609375 382.917969 213.582031 383.042969 213.796875 L 408.988281 198.730469 C 407.632812 196.386719 375.09375 141.3125 315.996094 141.3125 Z M 334.496094 189.820312 C 334.496094 200.019531 326.199219 208.320312 315.996094 208.320312 C 305.792969 208.320312 297.492188 200.019531 297.492188 189.820312 C 297.492188 179.617188 305.792969 171.316406 315.996094 171.316406 C 326.199219 171.316406 334.496094 179.617188 334.496094 189.820312 Z M 334.496094 189.820312 " data-original="#000000" class="active-path" data-old_color="#000000" fill="#8B8B8B"/>
<path d="M 454.945312 57.554688 C 417.832031 20.441406 368.484375 0 315.996094 0 C 263.507812 0 214.160156 20.441406 177.046875 57.554688 C 103.996094 130.605469 100.597656 247.328125 166.839844 324.445312 L 149.703125 341.582031 L 122.851562 314.734375 L 16.015625 421.574219 C 6.007812 431.578125 0.5 444.878906 0.5 459.027344 C 0.5 473.179688 6.011719 486.480469 16.015625 496.484375 C 26.019531 506.488281 39.320312 512 53.472656 512 C 67.621094 512 80.921875 506.488281 90.925781 496.484375 L 197.765625 389.648438 L 170.917969 362.800781 L 188.054688 345.660156 C 224.730469 377.164062 270.363281 392.917969 315.996094 392.917969 C 366.316406 392.917969 416.636719 373.765625 454.945312 335.453125 C 531.5625 258.835938 531.5625 134.171875 454.945312 57.554688 Z M 69.710938 475.269531 C 65.375 479.609375 59.605469 481.996094 53.46875 481.996094 C 47.335938 481.996094 41.570312 479.609375 37.230469 475.269531 C 32.890625 470.929688 30.503906 465.164062 30.503906 459.03125 C 30.503906 452.894531 32.890625 447.128906 37.230469 442.789062 L 80.96875 399.050781 L 113.449219 431.53125 Z M 134.667969 410.316406 L 102.183594 377.832031 L 122.851562 357.164062 L 155.332031 389.648438 Z M 433.730469 314.238281 C 368.8125 379.160156 263.179688 379.160156 198.261719 314.238281 C 133.34375 249.320312 133.34375 143.6875 198.261719 78.769531 C 230.726562 46.308594 273.351562 30.082031 315.996094 30.082031 C 358.628906 30.082031 401.273438 46.3125 433.730469 78.769531 C 498.648438 143.6875 498.648438 249.320312 433.730469 314.238281 Z M 433.730469 314.238281 " data-original="#000000" class="active-path" data-old_color="#000000" fill="#8B8B8B"/>
<path d="M 413.230469 99.269531 C 387.257812 73.292969 352.726562 58.992188 315.996094 58.992188 C 279.261719 58.992188 244.730469 73.292969 218.757812 99.269531 C 165.140625 152.882812 165.140625 240.125 218.757812 293.742188 C 244.730469 319.714844 279.261719 334.019531 315.996094 334.019531 C 352.726562 334.019531 387.257812 319.714844 413.230469 293.742188 C 466.847656 240.125 466.847656 152.882812 413.230469 99.269531 Z M 392.015625 272.527344 C 350.097656 314.445312 281.890625 314.445312 239.972656 272.527344 C 198.054688 230.609375 198.054688 162.402344 239.972656 120.484375 C 260.9375 99.523438 288.460938 89.042969 315.996094 89.042969 C 343.523438 89.042969 371.0625 99.527344 392.019531 120.484375 C 433.9375 162.402344 433.9375 230.609375 392.015625 272.527344 Z M 392.015625 272.527344 " data-original="#000000" class="active-path" data-old_color="#000000" fill="#8B8B8B"/>
</g></g> </svg>
