<?xml version="1.0" encoding="utf-8"?>
<!-- Generator: Adobe Illustrator 22.1.0, SVG Export Plug-In . SVG Version: 6.00 Build 0)  -->
<svg version="1.1" id="Слой_1" xmlns="http://www.w3.org/2000/svg" xmlns:xlink="http://www.w3.org/1999/xlink" x="0px" y="0px"
	 viewBox="0 0 79 79" style="enable-background:new 0 0 79 79;" xml:space="preserve">
<style type="text/css">
	.st0{fill:#FF0000;}
	.st1{fill:#FFFFFF;}
</style>
<circle class="st0" cx="39.5" cy="39.5" r="39.5"/>
<path class="st1" d="M31,54.4c5,1.4,11.3,2.8,18.9,4l-3.7,9.4c-13.3-2.2-24-5.4-32-9.4l2.8-8.2c5.9-2.4,12.3-5.9,19.2-10.3
	c5.9-3.7,11.2-7.6,16-11.7c-4.5-1.7-9.3-3.2-14.3-4.4c0.7,3.8,1.1,6.4,1.4,7.6l-9.5,1.2c-1.2-4-1.9-8.2-2.3-12.4l9.3-6.5
	c5.2,1.2,9.4,2.4,12.7,3.6c4.8,1.8,10.1,4,15.6,6.6l-3,8.8C54,40.6,43.6,47.9,31,54.4z"/>
</svg>
