<svg xmlns="http://www.w3.org/2000/svg" width="171.02702224254608" height="164.54053604602814" style=""><rect id="backgroundrect" width="100%" height="100%" x="0" y="0" fill="none" stroke="none" style="" class=""/><g class="currentLayer" style=""><title>Layer 1</title><g id="Contacts" class="" opacity="1" fill="#acacac" fill-opacity="1"><path d="M148.17116928100586,2.000000476837158 H31.234233856201172 A13.304234173714576,13.033639738138731 0 0 0 17.945945739746094,15.0180184841156 v7.810810804367065 H12.630630493164062 a10.630630493164062,10.414414405822754 0 0 0 0,20.828828811645508 H17.945945739746094 v10.414414405822754 H12.630630493164062 a10.630630493164062,10.414414405822754 0 0 0 0,20.828828811645508 H17.945945739746094 v13.018018007278442 H12.630630493164062 a10.630630493164062,10.414414405822754 0 0 0 0,20.828828811645508 H17.945945739746094 v10.414414405822754 H12.630630493164062 a10.630630493164062,10.414414405822754 0 0 0 0,20.828828811645508 H17.945945739746094 v5.207207202911377 a13.304234173714576,13.033639738138731 0 0 0 13.288288116455078,13.018018007278442 H148.17116928100586 a13.304234173714576,13.033639738138731 0 0 0 13.288288116455078,-13.018018007278442 V15.0180184841156 A13.304234173714576,13.033639738138731 0 0 0 148.17116928100586,2.000000476837158 zM12.630630493164062,38.4504508972168 a5.315315246582031,5.207207202911377 0 0 1 0,-10.414414405822754 h15.945945739746094 a5.315315246582031,5.207207202911377 0 0 1 0,10.414414405822754 zM7.315315246582031,64.48648691177368 a5.315315246582031,5.207207202911377 0 0 1 5.315315246582031,-5.207207202911377 h15.945945739746094 a5.315315246582031,5.207207202911377 0 0 1 0,10.414414405822754 H12.630630493164062 A5.315315246582031,5.207207202911377 0 0 1 7.315315246582031,64.48648691177368 zM7.315315246582031,98.33333373069763 a5.315315246582031,5.207207202911377 0 0 1 5.315315246582031,-5.207207202911377 h15.945945739746094 a5.315315246582031,5.207207202911377 0 0 1 0,10.414414405822754 H12.630630493164062 A5.315315246582031,5.207207202911377 0 0 1 7.315315246582031,98.33333373069763 zM7.315315246582031,129.5765769481659 a5.315315246582031,5.207207202911377 0 0 1 5.315315246582031,-5.207207202911377 h15.945945739746094 a5.315315246582031,5.207207202911377 0 0 1 0,10.414414405822754 H12.630630493164062 A5.315315246582031,5.207207202911377 0 0 1 7.315315246582031,129.5765769481659 zm42.52252197265625,23.432432413101196 H31.234233856201172 a7.972972869873047,7.810810804367065 0 0 1 -7.972972869873047,-7.810810804367065 V139.99099135398865 h5.315315246582031 a10.630630493164062,10.414414405822754 0 0 0 0,-20.828828811645508 H23.261260986328125 V108.74774813652039 h5.315315246582031 a10.630630493164062,10.414414405822754 0 0 0 0,-20.828828811645508 H23.261260986328125 V74.90090131759644 h5.315315246582031 a10.630630493164062,10.414414405822754 0 0 0 0,-20.828828811645508 H23.261260986328125 V43.657658100128174 h5.315315246582031 a10.630630493164062,10.414414405822754 0 0 0 0,-20.828828811645508 H23.261260986328125 V15.0180184841156 a7.972972869873047,7.810810804367065 0 0 1 7.972972869873047,-7.810810804367065 h18.60360336303711 zm106.30630493164062,-7.810810804367065 a7.972972869873047,7.810810804367065 0 0 1 -7.972972869873047,7.810810804367065 H55.15315246582031 V7.207207679748535 H148.17116928100586 a7.972972869873047,7.810810804367065 0 0 1 7.972972869873047,7.810810804367065 z" id="svg_1" opacity="1" fill="#acacac" fill-opacity="1"/><path d="M105.64864730834961,41.054054498672485 A39.864864349365234,39.05405402183533 0 1 0 145.51351165771484,80.10810852050781 A39.910045056145464,39.09831579952197 0 0 0 105.64864730834961,41.054054498672485 zM84.38738632202148,106.73256347796723 V95.72973012924194 a13.304234173714576,13.033639738138731 0 0 1 13.288288116455078,-13.018018007278442 h15.945945739746094 a13.304234173714576,13.033639738138731 0 0 1 13.288288116455078,13.018018007278442 v11.00282838274552 a34.34491035794781,33.6463702156243 0 0 1 -42.52252197265625,0 zM105.64864730834961,77.50450491905212 a10.630630493164062,10.414414405822754 0 1 1 10.630630493164062,-10.414414405822754 A10.630630493164062,10.414414405822754 0 0 1 105.64864730834961,77.50450491905212 zm26.576576232910156,24.21351399013588 V95.72973012924194 a18.630180547559576,18.25126184212195 0 0 0 -15.042341742300778,-17.881549614253345 a15.945945739746094,15.62162160873413 0 1 0 -23.068468981218757,0 A18.630180547559576,18.25126184212195 0 0 0 79.07207107543945,95.72973012924194 v5.988288159198589 a34.5495491027832,33.84684681892395 0 1 1 53.15315246582031,0 z" id="svg_2" opacity="1" fill="#acacac" fill-opacity="1"/></g></g></svg>