<svg xmlns="http://www.w3.org/2000/svg" width="32" height="32"><rect id="backgroundrect" width="100%" height="100%" x="0" y="0" fill="none" stroke="none"/><defs><style>.cls-1{fill:none;}</style></defs><title/><g class="currentLayer" style=""><title>Layer 1</title><g data-name="Layer 2" id="Layer_2" class="" fill-opacity="1" fill="#acacac"><path d="M28,9H11a1,1,0,0,1,0-2H28a1,1,0,0,1,0,2Z" id="svg_1" fill="#acacac"/><path d="M7,9H4A1,1,0,0,1,4,7H7A1,1,0,0,1,7,9Z" id="svg_2" fill="#acacac"/><path d="M21,17H4a1,1,0,0,1,0-2H21a1,1,0,0,1,0,2Z" id="svg_3" fill="#acacac"/><path d="M11,25H4a1,1,0,0,1,0-2h7a1,1,0,0,1,0,2Z" id="svg_4" fill="#acacac"/><path d="M9,11a3,3,0,1,1,3-3A3,3,0,0,1,9,11ZM9,7a1,1,0,1,0,1,1A1,1,0,0,0,9,7Z" id="svg_5" fill="#acacac"/><path d="M23,19a3,3,0,1,1,3-3A3,3,0,0,1,23,19Zm0-4a1,1,0,1,0,1,1A1,1,0,0,0,23,15Z" id="svg_6" fill="#acacac"/><path d="M13,27a3,3,0,1,1,3-3A3,3,0,0,1,13,27Zm0-4a1,1,0,1,0,1,1A1,1,0,0,0,13,23Z" id="svg_7" fill="#acacac"/><path d="M28,17H25a1,1,0,0,1,0-2h3a1,1,0,0,1,0,2Z" id="svg_8" fill="#acacac"/><path d="M28,25H15a1,1,0,0,1,0-2H28a1,1,0,0,1,0,2Z" id="svg_9" fill="#acacac"/></g><g id="frame" class="" fill-opacity="1" fill="#484848" stroke-opacity="1" stroke="#ffffff" opacity="1"><rect class="cls-1" height="32" width="32" id="svg_10" fill="#484848" stroke="#ffffff" opacity="1" y="88.64864540100098" x="197.29729253053665" fill-opacity="1"/></g></g></svg>