<?xml version="1.0" encoding="utf-8"?>
<!-- Generator: Adobe Illustrator 22.1.0, SVG Export Plug-In . SVG Version: 6.00 Build 0)  -->
<svg version="1.1" id="Слой_1" xmlns="http://www.w3.org/2000/svg" xmlns:xlink="http://www.w3.org/1999/xlink" x="0px" y="0px"
	 viewBox="0 0 1017.7 207.1" style="enable-background:new 0 0 1017.7 207.1;" xml:space="preserve">
<style type="text/css">
	.st0{fill:#33FFFF;}
	.st1{fill:#FF0000;}
</style>
<g transform="matrix( 1, 0, 0, 1, 0,0) ">
	<g>
		<g id="Layer2_0_FILL">
			<path class="st0" d="M997.6,68.8h-29V36.6l-42.8,5.1v27.1h-16.5v29.3h16.5v54c0,32.7,14.8,49,44.4,49c6.2,0,12.6-0.9,19.2-2.7
				c6.6-1.7,12.3-4.4,17.3-7.9l-14.1-26.8c-4.2,2.4-8.5,3.6-13,3.6c-3.7,0-6.4-1.2-8.3-3.6c-1.8-2.3-2.7-6.4-2.7-12.1V98.1h24.7
				L997.6,68.8 M852.8,64.6c-11.2,0-20.8,1.8-29,5.3c-8,3.5-14.2,8.3-18.5,14.5c-4.4,6.1-6.5,12.9-6.5,20.6
				c0,19.7,12.4,33.2,37.2,40.5l17.2,5.6c3.4,1.3,5.7,2.7,7,4.2c1.2,1.4,1.8,3.4,1.8,6c0,3.4-1.4,5.9-4.2,7.5
				c-2.8,1.7-6.8,2.6-11.9,2.6c-5.8,0-11.5-1.1-17.2-3.4c-5.6-2.2-10.9-5.2-15.9-9.1l-20.4,22.9c6.6,6.1,14.6,10.8,24.2,14.3
				c9.5,3.4,19.7,5.2,30.5,5.2c11.2,0,21.2-1.8,30.2-5.3c8.9-3.5,15.8-8.5,20.8-15c5.1-6.5,7.6-14,7.6-22.7c0-11-3.1-19.6-9.3-25.8
				c-6.3-6.2-16-11.2-29.1-15l-17.1-5.9c-3.7-1.6-6-3-7.1-4.2c-1.1-1.2-1.7-2.9-1.7-5c0-2.4,1.1-4.3,3.2-5.6c2.2-1.3,5.5-2,10-2
				c10.5,0,20.8,3.2,31,9.5l15.3-23.4c-5.9-5-13.1-8.9-21.5-11.8C871,66,862.1,64.6,852.8,64.6 M672.1,98.3
				c-4.8,10.4-7.2,22.1-7.2,35.1c0,20.7,5.7,37.1,17,49.3c11.3,12.3,27.8,18.4,49.5,18.4c10.1,0,19.5-1.6,28.2-4.9
				c8.7-3.3,16.4-7.7,23.1-13.4l-17.3-23.4c-5.6,3.8-10.8,6.6-15.5,8.4c-4.7,1.9-9.4,2.8-14.3,2.8c-8.1,0-14.3-1.8-18.8-5.4
				c-4.4-3.6-7.2-10.3-8.3-20.1h78.3l0.7-14.4c0-20.9-5.5-37.2-16.4-48.8c-10.9-11.6-25.6-17.4-44.3-17.4c-13.1,0-24.3,3-33.6,9.1
				C683.7,79.7,676.8,87.9,672.1,98.3 M708.1,120.2c0.8-10.4,2.7-17.7,5.8-21.9c3.1-4.1,7.6-6.2,13.5-6.2c6.4,0,10.9,2.3,13.6,6.9
				c2.7,4.7,4.2,11.3,4.3,19.7v1.6H708.1 M660.6,67.1c-4.5-1.4-8.9-2.1-13-2.1c-7,0-13.5,2.5-19.5,7.6c-6,5.2-10.3,12-12.8,20.4
				l-3.9-24.2h-37.3v127.9h42.8v-60.7c2.1-9.9,5-17.3,8.8-22.2c3.7-4.9,9.2-7.3,16.4-7.3c3.5,0,7.3,0.6,11.5,1.9L660.6,67.1
				 M496.3,64.6c-13.1,0-24.4,3-33.7,9.1c-9.3,6.1-16.3,14.3-20.9,24.7c-4.8,10.4-7.1,22.1-7.1,35.1c0,20.7,5.6,37.1,16.9,49.3
				c11.3,12.3,27.8,18.4,49.4,18.4c10.1,0,19.5-1.6,28.1-4.9c8.7-3.3,16.4-7.7,23.1-13.4l-17.3-23.4c-5.6,3.8-10.8,6.6-15.5,8.4
				c-4.7,1.9-9.4,2.8-14.3,2.8c-8.1,0-14.3-1.8-18.8-5.4c-4.4-3.6-7.2-10.3-8.3-20.1h78.3l0.7-14.4c0-20.9-5.5-37.2-16.4-48.8
				C529.7,70.3,515,64.6,496.3,64.6 M477.8,120.2c0.8-10.4,2.7-17.7,5.8-21.9c3.1-4.1,7.6-6.2,13.5-6.2c6.4,0,10.9,2.3,13.6,6.9
				c2.7,4.7,4.2,11.3,4.3,19.7v1.6H477.8 M334.2,98.1h16.5v54c0,32.7,14.8,49,44.5,49c6.2,0,12.6-0.9,19.2-2.7
				c6.6-1.7,12.3-4.4,17.2-7.9l-14.1-26.8c-4.2,2.4-8.5,3.6-13,3.6c-3.7,0-6.4-1.2-8.3-3.6c-1.8-2.3-2.7-6.4-2.7-12.1V98.1h24.7
				l4.4-29.3h-29V36.6l-42.8,5.1v27.1h-16.5V98.1 M323,102.9c0-12.1-3.1-21.6-9.4-28.2c-6.2-6.7-14.7-10.1-25.7-10.1
				c-7.7,0-14.6,1.5-20.8,4.4c-6.3,3.1-12.3,7.8-18,14.2L246,68.8h-37.3v127.9h42.8v-86.3c6.1-9.8,12.5-14.7,19.2-14.7
				c3.2,0,5.6,1.1,7.2,3.2c1.6,2.2,2.4,6.1,2.4,11.7v86.1H323V102.9 M183.8,68.8H141v127.9h42.8V68.8 M138,23.5
				c0,6.7,2.2,12.3,6.8,16.8c4.6,4.5,10.5,6.7,17.7,6.7c7.2,0,13.1-2.2,17.6-6.7c4.6-4.5,6.9-10.2,6.9-16.8c0-6.7-2.3-12.3-6.9-16.8
				C175.5,2.2,169.7,0,162.5,0c-7.2,0-13.1,2.2-17.7,6.6C140.2,11.1,138,16.7,138,23.5 M121.8,30H6.9v34h64.3L0,163.8v32.9h119.3
				l4.4-35.1H52.5l69.3-98.4V30z"/>
		</g>
	</g>
</g>
<g transform="matrix( 1, 0, 0, 1, 0,0) ">
	<g>
		<g id="Layer1_0_FILL">
			<path class="st1" d="M1008.7,74.8h-29.1V42.6l-42.8,5v27.1h-16.5v29.3h16.5v54c0,32.7,14.8,49,44.5,49c6.2,0,12.6-0.9,19.2-2.7
				c6.6-1.7,12.3-4.3,17.2-7.8l-14.1-26.8c-4.2,2.4-8.5,3.7-13,3.7c-3.7,0-6.4-1.2-8.3-3.7c-1.8-2.3-2.7-6.4-2.7-12.1v-53.6h24.7
				L1008.7,74.8 M852.4,108.2c0-2.4,1.1-4.3,3.2-5.7c2.2-1.3,5.5-2,10-2c10.5,0,20.8,3.2,31,9.5l15.3-23.4
				c-5.9-5-13.1-8.9-21.5-11.8c-8.4-2.8-17.2-4.3-26.5-4.2c-11.2,0-20.8,1.8-29,5.3c-8,3.5-14.2,8.3-18.5,14.5
				c-4.4,6.1-6.5,12.9-6.5,20.6c0,19.7,12.4,33.2,37.2,40.5l17.2,5.6c3.4,1.3,5.7,2.7,7,4.2c1.2,1.4,1.8,3.4,1.8,6
				c0,3.4-1.4,5.9-4.2,7.5c-2.8,1.7-6.8,2.6-11.8,2.6c-5.8,0-11.5-1.1-17.2-3.4c-5.6-2.2-10.9-5.2-15.9-9.1l-20.4,22.9
				c6.6,6.1,14.6,10.8,24.2,14.3c9.5,3.4,19.7,5.1,30.5,5.1c11.2,0,21.2-1.8,30.2-5.3c8.9-3.5,15.8-8.5,20.8-15
				c5.1-6.5,7.6-14,7.6-22.7c0-11-3.1-19.6-9.4-25.8c-6.3-6.2-16-11.2-29.1-15l-17.1-5.8c-3.7-1.6-6-3-7.1-4.2
				C853,111.9,852.4,110.2,852.4,108.2 M683.1,104.2c-4.8,10.4-7.1,22.1-7.1,35.1c0,20.7,5.6,37.2,16.9,49.4
				c11.3,12.3,27.8,18.4,49.5,18.4c10.1,0,19.5-1.6,28.2-4.9c8.7-3.3,16.4-7.7,23.1-13.4l-17.3-23.4c-5.6,3.8-10.8,6.7-15.5,8.4
				c-4.7,1.9-9.4,2.8-14.3,2.8c-8.1,0-14.4-1.8-18.8-5.4c-4.4-3.6-7.2-10.3-8.3-20h78.3l0.7-14.5c0-20.9-5.5-37.2-16.4-48.8
				c-10.9-11.6-25.6-17.4-44.3-17.4c-13.1,0-24.4,3-33.7,9.1C694.8,85.6,687.8,93.9,683.1,104.2 M724.9,104.2
				c3.1-4.1,7.6-6.2,13.5-6.2c6.4,0,10.9,2.3,13.6,6.9c2.7,4.7,4.2,11.3,4.3,19.7v1.5h-37.2C720,115.8,721.9,108.5,724.9,104.2
				 M658.7,71c-7,0-13.5,2.5-19.5,7.6c-6,5.2-10.3,12-12.8,20.4l-3.8-24.2h-37.3v127.9H628V142c2.1-9.9,5-17.4,8.8-22.2
				c3.7-4.9,9.2-7.3,16.4-7.3c3.5,0,7.3,0.6,11.5,1.9l7-41.2C667.2,71.7,662.8,71,658.7,71 M507.4,70.5c-13.1,0-24.4,3-33.6,9.1
				c-9.3,6.1-16.3,14.3-21,24.7c-4.8,10.4-7.1,22.1-7.1,35.1c0,20.7,5.6,37.2,17,49.4c11.3,12.3,27.8,18.4,49.4,18.4
				c10.1,0,19.5-1.6,28.1-4.9c8.7-3.3,16.4-7.7,23.1-13.4l-17.4-23.4c-5.6,3.8-10.8,6.7-15.5,8.4c-4.7,1.9-9.4,2.8-14.3,2.8
				c-8.1,0-14.4-1.8-18.7-5.4c-4.4-3.6-7.2-10.3-8.3-20h78.3l0.7-14.5c0-20.9-5.5-37.2-16.4-48.8C540.8,76.3,526,70.5,507.4,70.5
				 M488.8,126.2c0.8-10.4,2.7-17.7,5.8-21.9c3.1-4.1,7.6-6.2,13.5-6.2c6.4,0,10.9,2.3,13.6,6.9c2.7,4.7,4.2,11.3,4.3,19.7v1.5
				H488.8 M361.8,74.8h-16.5v29.3h16.5v54c0,32.7,14.8,49,44.4,49c6.2,0,12.6-0.9,19.2-2.7c6.6-1.7,12.3-4.3,17.2-7.8l-14.1-26.8
				c-4.2,2.4-8.5,3.7-13,3.7c-3.7,0-6.4-1.2-8.3-3.7c-1.8-2.3-2.7-6.4-2.7-12.1v-53.6h24.7l4.3-29.3h-29V42.6l-42.8,5V74.8
				 M324.6,80.6c-6.2-6.7-14.7-10.1-25.6-10.1c-7.7,0-14.6,1.5-20.9,4.4c-6.3,3.1-12.2,7.8-18,14.2L257,74.8h-37.3v127.9h42.8v-86.3
				c6.1-9.8,12.5-14.7,19.2-14.7c3.2,0,5.6,1.1,7.1,3.2c1.6,2.2,2.5,6.1,2.5,11.7v86.1H334v-93.8C334,96.7,330.9,87.3,324.6,80.6
				 M194.9,74.8h-42.8v127.9h42.8V74.8 M155.8,12.6c-4.5,4.5-6.8,10.1-6.8,16.8c0,6.7,2.2,12.3,6.8,16.8c4.6,4.5,10.5,6.7,17.7,6.7
				c7.2,0,13.1-2.2,17.6-6.7c4.6-4.5,6.9-10.2,6.9-16.8c0-6.7-2.3-12.3-6.9-16.8C186.6,8.2,180.7,6,173.5,6
				C166.3,6,160.4,8.2,155.8,12.6 M132.9,36h-115v34h64.3l-71.2,99.8v32.9h119.3l4.4-35H63.5l69.4-98.5V36z"/>
		</g>
	</g>
</g>
<g transform="matrix( 1, 0, 0, 1, 0,0) ">
	<g>
		<g id="Layer0_0_FILL">
			<path d="M1003.6,70.8h-29V38.6l-42.8,5.1v27.1h-16.5v29.3h16.5v54c0,32.7,14.8,49,44.4,49c6.2,0,12.6-0.9,19.2-2.7
				c6.6-1.7,12.3-4.4,17.3-7.9l-14.1-26.8c-4.2,2.4-8.5,3.6-13,3.6c-3.7,0-6.4-1.2-8.3-3.6c-1.8-2.3-2.7-6.4-2.7-12.1v-53.6h24.7
				L1003.6,70.8 M858.8,66.6c-11.2,0-20.8,1.8-29,5.3c-8,3.5-14.2,8.3-18.5,14.5c-4.4,6.1-6.5,12.9-6.5,20.6
				c0,19.7,12.4,33.2,37.2,40.5l17.2,5.6c3.4,1.3,5.7,2.7,7,4.2c1.2,1.4,1.8,3.4,1.8,6c0,3.4-1.4,5.9-4.2,7.5
				c-2.8,1.7-6.8,2.6-11.9,2.6c-5.8,0-11.5-1.1-17.2-3.4c-5.6-2.2-10.9-5.2-15.9-9.1l-20.4,22.9c6.6,6.1,14.6,10.8,24.2,14.3
				c9.5,3.4,19.7,5.1,30.5,5.1c11.2,0,21.2-1.8,30.2-5.3c8.9-3.5,15.8-8.5,20.8-15c5.1-6.5,7.6-14,7.6-22.7c0-11-3.1-19.6-9.3-25.8
				c-6.3-6.2-16-11.2-29.1-15l-17.1-5.9c-3.7-1.6-6-3-7.1-4.2c-1.1-1.2-1.7-2.9-1.7-5c0-2.4,1.1-4.3,3.2-5.6c2.2-1.3,5.5-2,10-2
				c10.5,0,20.8,3.2,31,9.5l15.3-23.4c-5.9-5-13.1-8.9-21.5-11.8C877,68,868.1,66.6,858.8,66.6 M678.1,100.3
				c-4.8,10.4-7.2,22.1-7.2,35.1c0,20.7,5.7,37.1,17,49.3c11.3,12.3,27.8,18.4,49.5,18.4c10.1,0,19.5-1.7,28.2-4.9
				c8.7-3.3,16.4-7.7,23.1-13.4l-17.3-23.4c-5.6,3.8-10.8,6.6-15.5,8.4c-4.7,1.9-9.4,2.8-14.3,2.8c-8.1,0-14.3-1.8-18.8-5.4
				c-4.4-3.6-7.2-10.3-8.3-20.1h78.3l0.7-14.4c0-20.9-5.5-37.2-16.4-48.8c-10.9-11.6-25.6-17.4-44.3-17.4c-13.1,0-24.3,3-33.6,9.1
				C689.7,81.7,682.8,89.9,678.1,100.3 M714.1,122.2c0.8-10.4,2.7-17.7,5.8-21.9c3.1-4.1,7.6-6.2,13.5-6.2c6.4,0,10.9,2.3,13.6,6.9
				c2.7,4.7,4.2,11.3,4.3,19.7v1.6H714.1 M653.6,67.1c-7,0-13.5,2.5-19.5,7.6c-6,5.2-10.3,12-12.8,20.4l-3.9-24.2h-37.3v127.9h42.8
				v-60.7c2.1-9.9,5-17.3,8.8-22.2c3.7-4.9,9.2-7.3,16.4-7.3c3.5,0,7.3,0.6,11.5,1.9l7-41.3C662.1,67.8,657.8,67.1,653.6,67.1
				 M502.3,66.6c-13.1,0-24.4,3-33.7,9.1c-9.3,6.1-16.3,14.3-20.9,24.7c-4.8,10.4-7.1,22.1-7.1,35.1c0,20.7,5.6,37.1,16.9,49.3
				c11.3,12.3,27.7,18.4,49.4,18.4c10.1,0,19.5-1.7,28.1-4.9c8.7-3.3,16.4-7.7,23.1-13.4l-17.3-23.4c-5.6,3.8-10.8,6.6-15.5,8.4
				c-4.7,1.9-9.4,2.8-14.3,2.8c-8.1,0-14.3-1.8-18.8-5.4c-4.4-3.6-7.2-10.3-8.3-20.1h78.3l0.7-14.4c0-20.9-5.5-37.2-16.4-48.8
				C535.7,72.3,521,66.6,502.3,66.6 M483.8,122.2c0.8-10.4,2.7-17.7,5.8-21.9c3.1-4.1,7.6-6.2,13.5-6.2c6.4,0,10.9,2.3,13.6,6.9
				c2.7,4.7,4.2,11.3,4.3,19.7v1.6H483.8 M356.8,70.8h-16.5v29.3h16.5v54c0,32.7,14.8,49,44.5,49c6.2,0,12.6-0.9,19.2-2.7
				c6.6-1.7,12.3-4.4,17.2-7.9l-14.1-26.8c-4.2,2.4-8.5,3.6-13,3.6c-3.7,0-6.4-1.2-8.3-3.6c-1.8-2.3-2.7-6.4-2.7-12.1v-53.6h24.7
				l4.4-29.3h-29V38.6l-42.8,5.1V70.8 M329,104.9c0-12.1-3.1-21.6-9.4-28.2c-6.2-6.7-14.7-10.1-25.7-10.1c-7.7,0-14.6,1.5-20.8,4.4
				c-6.3,3.1-12.3,7.8-18,14.2L252,70.8h-37.3v127.9h42.8v-86.3c6.1-9.8,12.5-14.7,19.2-14.7c3.2,0,5.6,1.1,7.2,3.2
				c1.6,2.2,2.4,6.1,2.4,11.7v86.1H329V104.9 M189.8,70.8H147v127.9h42.8V70.8 M144,25.5c0,6.7,2.2,12.3,6.8,16.8
				c4.6,4.5,10.5,6.7,17.7,6.7c7.2,0,13.1-2.2,17.6-6.7c4.6-4.5,6.9-10.2,6.9-16.8c0-6.7-2.3-12.3-6.9-16.8
				C181.5,4.2,175.7,2,168.5,2c-7.2,0-13.1,2.2-17.7,6.6C146.2,13.1,144,18.7,144,25.5 M127.8,32H12.9v34h64.3L6,165.8v32.9h119.3
				l4.5-35.1H58.5l69.3-98.4V32z"/>
		</g>
	</g>
</g>
</svg>
